<?xml version="1.0" standalone="no"?>
<!DOCTYPE svg PUBLIC "-//W3C//DTD SVG 20010904//EN"
 "http://www.w3.org/TR/2001/REC-SVG-20010904/DTD/svg10.dtd">
<svg version="1.0" xmlns="http://www.w3.org/2000/svg"
 width="974.000000pt" height="974.000000pt" viewBox="0 0 974.000000 974.000000"
 preserveAspectRatio="xMidYMid meet">
<metadata>
Created by potrace 1.14, written by Peter Selinger 2001-2017
</metadata>
<g transform="translate(0.000000,974.000000) scale(0.100000,-0.100000)"
fill="#000000" stroke="none">
<path d="M3067 9718 c2 -5 -10 -8 -26 -8 -17 0 -31 -5 -31 -11 0 -6 -7 -9 -15
-5 -8 3 -15 1 -15 -4 0 -6 -7 -10 -15 -10 -8 0 -15 -5 -15 -12 0 -6 -3 -9 -6
-5 -3 3 -20 -7 -38 -23 -17 -17 -35 -30 -39 -30 -5 0 -6 -4 -2 -9 3 -6 -1 -13
-9 -18 -8 -4 -16 -15 -18 -23 -2 -8 -9 -21 -16 -28 -12 -14 -36 -94 -36 -122
0 -8 -5 -18 -11 -22 -7 -5 -7 -11 0 -15 6 -5 10 -29 11 -54 1 -52 24 -139 36
-139 4 0 8 -9 8 -19 0 -17 25 -45 99 -111 57 -51 231 -87 270 -56 11 8 13 8 7
-1 -4 -7 -2 -13 3 -13 6 0 11 5 11 10 0 6 7 10 15 10 20 0 98 39 107 54 4 6 8
7 8 3 0 -13 30 20 30 33 0 6 3 9 8 7 9 -6 33 19 25 27 -3 3 2 8 11 12 9 3 14
10 11 14 -3 4 2 13 10 20 8 7 15 21 15 31 0 11 4 19 8 19 8 0 10 8 14 90 2 30
8 58 13 62 6 5 6 8 -1 8 -6 0 -10 10 -9 23 1 12 -3 28 -9 36 -8 11 -8 13 1 8
8 -5 8 1 -2 19 -8 15 -12 31 -9 36 3 4 1 8 -4 8 -4 0 -14 16 -22 35 -7 19 -17
32 -22 29 -4 -3 -8 2 -8 10 0 9 -4 16 -10 16 -5 0 -10 7 -10 15 0 8 -4 15 -10
15 -5 0 -20 11 -33 24 -14 14 -28 22 -31 19 -3 -4 -13 2 -21 13 -8 10 -15 16
-15 12 0 -4 -16 0 -35 8 -19 8 -35 11 -35 8 0 -4 -7 -1 -15 6 -12 10 -15 10
-15 -1 0 -9 -3 -10 -8 -4 -8 11 -113 14 -105 3z"/>
<path d="M4354 9263 c5 -9 0 -13 -16 -13 -13 0 -29 -5 -36 -12 -9 -9 -12 -9
-12 1 0 10 -3 11 -13 2 -8 -6 -17 -8 -20 -4 -4 3 -7 1 -7 -6 0 -7 -6 -11 -14
-8 -8 3 -20 -1 -27 -9 -6 -8 -14 -12 -17 -10 -3 3 -17 -3 -32 -14 -16 -11 -33
-20 -39 -20 -7 0 -14 -7 -17 -15 -4 -8 -10 -12 -15 -9 -5 3 -12 -2 -15 -10 -3
-9 -9 -15 -13 -13 -3 1 -29 -21 -58 -50 -28 -29 -48 -53 -45 -53 4 0 -1 -5
-11 -11 -9 -6 -15 -14 -12 -19 3 -5 -3 -15 -15 -22 -11 -7 -20 -21 -20 -30 0
-10 -5 -18 -12 -18 -6 0 -9 -3 -5 -6 3 -3 -3 -22 -13 -41 -10 -19 -16 -42 -13
-51 4 -10 2 -13 -5 -8 -7 4 -12 1 -13 -6 0 -7 -2 -20 -4 -28 -2 -8 -5 -27 -8
-42 -3 -15 -9 -33 -13 -39 -5 -8 -3 -9 7 -4 11 7 12 6 3 -6 -12 -15 -16 -219
-4 -219 4 0 6 -12 6 -27 -1 -16 3 -34 8 -40 4 -7 5 -13 1 -13 -4 0 -3 -6 3
-12 5 -7 12 -24 14 -38 1 -14 9 -31 16 -38 7 -8 10 -18 7 -23 -4 -5 -1 -9 5
-9 6 0 8 -4 5 -10 -3 -5 -1 -10 5 -10 6 0 8 -4 5 -10 -3 -5 -1 -10 5 -10 6 0
8 -4 5 -10 -3 -5 -2 -10 4 -10 6 0 13 -11 17 -25 3 -14 9 -23 14 -20 4 2 12
-7 18 -20 7 -14 16 -25 22 -25 5 0 10 -7 10 -15 0 -8 4 -15 9 -15 4 0 21 -12
38 -27 39 -37 90 -73 103 -73 5 0 10 -5 10 -11 0 -6 7 -9 15 -5 9 3 15 0 15
-9 0 -9 6 -12 15 -9 8 4 15 1 15 -5 0 -6 7 -8 15 -5 8 4 15 2 15 -3 0 -8 15
-12 58 -15 6 -1 12 -5 12 -10 0 -5 4 -7 9 -3 5 3 13 1 16 -5 5 -8 11 -8 19 -1
7 6 16 7 20 3 13 -12 177 -11 169 2 -4 6 1 5 10 -3 9 -7 17 -9 17 -4 0 5 10 9
23 8 12 -1 27 1 32 5 6 3 21 7 34 8 13 0 27 5 30 9 3 4 13 9 21 11 25 5 84 34
103 50 9 8 17 12 17 8 0 -4 6 -1 14 6 8 7 12 16 9 20 -2 4 2 5 10 2 8 -3 17 2
20 10 4 9 14 16 22 16 9 0 13 5 10 10 -3 6 4 14 17 19 13 6 19 10 15 10 -4 1
2 12 15 26 34 35 53 59 54 65 2 15 28 60 36 60 4 0 8 3 7 8 -2 15 14 52 23 52
5 0 6 5 3 10 -4 6 -1 17 5 25 7 8 9 15 5 15 -4 0 -3 6 2 13 6 6 9 20 8 30 -2
9 0 17 4 17 4 0 7 10 6 23 -1 12 3 28 9 36 9 12 8 13 -4 6 -12 -7 -13 -6 -3 6
13 16 14 167 1 175 -4 3 -4 14 2 24 6 10 6 21 1 24 -8 5 -26 82 -22 99 0 4 -3
7 -9 7 -5 0 -7 7 -4 15 4 8 1 15 -5 15 -6 0 -11 9 -11 20 0 11 -4 20 -10 20
-5 0 -10 9 -10 20 0 11 -3 20 -8 20 -4 0 -13 12 -20 28 -17 38 -78 113 -86
105 -3 -3 -6 2 -6 12 0 10 -3 16 -6 13 -3 -3 -20 8 -37 26 -36 35 -49 44 -128
85 -31 17 -59 27 -63 24 -3 -4 -6 -2 -6 4 0 6 -10 9 -22 9 -13 -1 -28 2 -34 6
-7 5 -28 9 -48 10 -20 1 -36 4 -36 7 0 8 -158 6 -167 -2 -3 -4 -13 -1 -21 6
-13 9 -14 9 -8 0z"/>
<path d="M5697 7692 c-10 -2 -14 -8 -10 -15 5 -9 3 -9 -8 -1 -12 9 -33 11 -41
4 -2 -1 -10 -3 -18 -5 -8 -2 -28 -6 -45 -10 -16 -3 -37 -7 -45 -8 -8 -1 -21
-7 -27 -14 -7 -6 -24 -10 -37 -9 -14 2 -24 -2 -23 -8 1 -6 -4 -10 -10 -8 -7 1
-13 -3 -13 -9 0 -5 -5 -7 -10 -4 -6 3 -17 -1 -26 -9 -8 -9 -22 -16 -30 -16 -8
0 -12 -4 -9 -10 3 -5 -6 -12 -20 -16 -14 -3 -25 -10 -25 -15 0 -5 -7 -9 -16
-9 -8 0 -12 -4 -9 -10 3 -5 2 -10 -3 -10 -4 0 -19 -10 -32 -22 -14 -13 -29
-21 -35 -20 -5 2 -7 1 -3 -3 4 -4 -8 -22 -25 -40 -48 -49 -66 -73 -60 -79 4
-3 1 -6 -5 -6 -7 0 -18 -16 -27 -36 -8 -19 -19 -33 -24 -29 -6 3 -8 -3 -6 -15
2 -11 1 -20 -3 -20 -4 0 -13 -9 -20 -21 -8 -12 -9 -18 -3 -15 7 4 8 1 5 -8 -3
-9 -10 -16 -15 -16 -5 0 -8 -3 -7 -7 1 -5 -7 -35 -18 -68 -10 -33 -19 -64 -20
-70 -1 -5 -3 -12 -4 -15 -1 -3 -3 -18 -5 -35 -1 -16 -3 -30 -5 -30 -8 0 -5
-61 4 -67 8 -6 7 -8 -2 -8 -16 0 -14 -161 2 -172 7 -5 7 -8 -2 -8 -8 0 -10 -5
-5 -12 4 -7 8 -24 9 -38 2 -14 10 -50 18 -80 9 -30 18 -63 20 -72 7 -26 70
-153 79 -156 4 -2 7 -10 7 -18 0 -8 5 -14 10 -14 6 0 10 -7 10 -15 0 -8 5 -15
10 -15 6 0 10 -4 10 -9 0 -14 62 -76 72 -73 5 1 7 -2 4 -7 -3 -5 1 -12 10 -15
8 -3 12 -10 9 -16 -3 -5 -1 -10 5 -10 6 0 17 -6 25 -12 54 -52 214 -142 278
-156 4 -1 8 -2 10 -3 1 0 15 -3 32 -5 16 -3 33 -10 36 -16 4 -7 9 -7 13 1 4 6
12 8 18 5 16 -10 54 -15 120 -17 55 -1 57 -2 41 -19 -9 -10 -12 -18 -8 -18 5
0 0 -6 -10 -14 -11 -8 -24 -12 -29 -9 -5 4 -6 1 -1 -6 4 -8 -1 -18 -14 -27
-12 -8 -21 -21 -21 -28 0 -8 -7 -17 -16 -20 -8 -3 -13 -10 -10 -15 4 -5 3 -11
-1 -13 -16 -7 -60 -84 -57 -101 1 -9 -2 -15 -6 -12 -7 5 -23 -25 -25 -47 0 -3
-3 -10 -7 -14 -5 -4 -8 -16 -8 -26 0 -10 -4 -18 -9 -18 -6 0 -8 -9 -6 -20 2
-11 0 -20 -4 -20 -4 0 -8 -6 -9 -12 0 -7 -3 -24 -6 -38 -3 -14 -8 -35 -10 -48
-3 -12 -8 -27 -12 -34 -5 -7 -3 -8 5 -3 10 6 11 3 1 -14 -6 -12 -8 -31 -5 -41
4 -11 3 -20 -2 -20 -13 0 -4 -162 10 -179 10 -12 9 -13 -2 -7 -10 7 -11 3 -5
-15 4 -13 8 -35 10 -49 1 -14 3 -25 4 -25 2 0 4 -10 5 -22 1 -12 6 -30 10 -40
11 -25 14 -35 17 -58 2 -11 6 -22 9 -25 3 -3 23 -42 44 -87 21 -46 42 -83 47
-83 4 0 8 -6 8 -14 0 -8 3 -16 8 -18 4 -1 22 -25 40 -53 18 -27 35 -49 38 -47
2 1 5 -1 6 -5 2 -5 13 -17 26 -28 l23 -20 -78 -2 c-113 -3 -139 -8 -265 -50
-43 -15 -78 -30 -78 -35 0 -5 -4 -6 -10 -3 -5 3 -10 2 -10 -3 0 -4 -16 -14
-35 -22 -19 -7 -37 -20 -40 -27 -2 -8 -9 -12 -14 -9 -5 3 -12 -1 -15 -10 -3
-8 -11 -12 -17 -8 -7 4 -10 3 -6 -2 3 -5 -17 -27 -43 -49 -27 -22 -49 -46 -50
-52 0 -7 -4 -13 -9 -13 -5 0 -27 -27 -49 -60 -21 -33 -42 -57 -47 -52 -5 4 -5
2 -2 -4 3 -5 -7 -36 -23 -67 -16 -31 -27 -57 -24 -57 2 0 -2 -13 -10 -29 -8
-15 -18 -41 -21 -57 -10 -47 -16 -78 -18 -99 -2 -11 -6 -25 -10 -32 -4 -6 -3
-15 3 -18 7 -5 8 -11 1 -19 -12 -15 -11 -205 2 -213 5 -3 3 -9 -4 -14 -9 -6
-10 -9 -2 -9 6 0 10 -11 8 -26 -1 -14 3 -31 10 -37 9 -8 10 -19 4 -35 -6 -15
-5 -21 1 -17 6 3 11 -1 11 -9 2 -24 4 -29 17 -53 7 -13 10 -23 7 -23 -8 0 67
-143 80 -152 5 -4 7 -8 3 -8 -9 0 14 -30 54 -72 14 -15 25 -28 23 -28 -2 0 11
-15 28 -32 43 -44 112 -98 126 -98 6 0 11 -4 11 -9 0 -11 54 -40 85 -47 11 -2
21 -8 23 -14 2 -5 11 -10 21 -10 9 0 21 -4 27 -9 5 -6 20 -12 34 -14 14 -2 33
-7 42 -11 9 -4 22 -5 28 -1 5 3 10 1 10 -5 0 -7 6 -10 13 -7 6 2 21 1 32 -3
11 -4 26 -3 34 4 11 8 13 8 8 -1 -5 -8 21 -11 98 -11 58 -1 105 3 105 8 0 4
16 6 35 4 19 -1 35 1 35 6 0 4 8 7 18 5 9 -1 23 2 30 8 6 5 12 6 12 3 0 -4 9
-2 21 4 11 6 30 13 42 16 12 2 23 8 25 14 2 6 8 8 13 4 5 -3 16 2 25 10 9 9
19 14 24 11 5 -3 10 -1 12 4 1 5 9 11 17 13 15 3 32 16 76 54 13 12 26 19 29
17 3 -3 8 2 12 11 3 9 10 13 15 10 5 -3 9 0 9 6 0 15 26 41 34 33 3 -4 6 1 6
11 0 9 7 19 15 22 8 3 17 14 20 25 4 11 10 17 15 14 4 -3 11 7 14 20 4 14 11
23 15 20 5 -3 12 8 16 25 4 17 10 28 15 25 5 -3 11 8 15 25 4 18 11 27 18 23
6 -4 8 0 4 10 -3 9 -1 22 6 29 7 8 13 18 14 23 1 6 10 33 20 60 10 28 18 57
18 65 -1 8 2 20 7 26 4 6 9 30 10 53 1 22 4 41 7 41 4 0 7 9 7 20 0 11 -4 20
-9 20 -4 0 -5 6 0 12 10 18 11 108 0 108 -5 0 -4 6 2 14 9 10 9 16 1 21 -8 5
-8 10 0 20 8 10 8 15 0 20 -7 4 -10 18 -7 31 2 13 0 24 -5 24 -5 0 -6 5 -3 10
3 5 3 16 -1 22 -5 7 -9 19 -10 28 -4 30 -13 59 -23 78 -6 11 -7 22 -4 26 3 3
1 6 -6 6 -8 0 -11 7 -7 15 3 8 -2 19 -12 24 -9 6 -13 11 -9 11 9 0 -23 61 -38
72 -6 5 -6 8 -1 8 6 0 1 7 -10 16 -10 8 -12 13 -4 9 9 -4 7 0 -4 9 -11 9 -15
20 -10 28 4 7 4 10 0 7 -13 -12 -53 35 -43 49 10 13 31 17 23 4 -6 -10 56 -8
72 2 7 4 12 2 12 -5 0 -8 4 -8 15 1 11 9 15 9 15 1 0 -7 5 -9 13 -4 11 7 40
11 110 15 15 1 27 5 27 9 0 4 15 6 34 5 19 -1 32 3 28 8 -3 5 2 7 11 3 9 -3
19 -2 22 4 4 5 11 7 16 4 5 -4 9 -1 9 5 0 6 4 9 9 5 5 -3 12 -1 16 5 3 5 17
10 31 10 13 0 24 5 24 11 0 6 7 9 15 5 8 -3 14 0 12 7 -1 7 6 11 16 9 9 -2 17
2 17 7 0 9 40 27 49 22 2 -2 8 4 13 13 5 9 13 14 19 11 5 -4 9 2 9 11 0 10 3
15 6 11 4 -3 12 -1 19 6 7 7 23 19 35 27 13 8 36 29 53 45 16 17 33 29 38 27
5 -1 9 4 9 12 0 8 11 23 25 34 14 11 25 23 25 26 0 8 18 31 42 53 9 9 15 20
12 25 -3 4 0 8 5 8 6 0 11 7 11 15 0 8 4 15 8 15 9 0 47 71 44 83 -1 4 2 7 8
7 5 0 10 9 10 19 0 11 5 23 10 26 6 4 8 11 5 16 -4 5 -1 9 4 9 6 0 10 3 9 8
-1 4 7 36 17 72 11 36 18 67 16 69 -1 2 3 8 11 12 11 7 11 9 -1 9 -9 0 -10 4
-4 13 5 6 9 24 8 40 0 15 2 27 5 27 8 0 5 185 -4 198 -4 7 -2 12 5 12 8 0 8 4
1 13 -6 7 -9 25 -8 40 2 15 -1 30 -5 33 -5 3 -9 16 -9 29 0 13 -4 26 -8 29 -5
3 -8 15 -7 28 1 13 -2 26 -7 29 -5 3 -10 12 -11 20 -2 8 -6 19 -9 25 -4 6 -9
23 -12 38 -3 16 -12 36 -21 46 -8 9 -15 22 -15 28 0 6 -6 17 -12 24 -7 7 -19
25 -27 40 -8 15 -22 37 -33 47 -10 11 -18 22 -18 25 0 3 -45 54 -88 99 -30 32
-74 67 -82 67 -6 0 -8 5 -5 10 3 6 0 10 -7 10 -7 1 -28 14 -47 30 -19 16 -38
27 -42 24 -4 -2 -11 2 -16 9 -4 7 -24 19 -43 27 -19 7 -43 20 -54 29 -10 9
-20 15 -22 14 -8 -5 -65 10 -70 18 -3 5 -10 7 -15 4 -5 -4 -9 0 -9 7 0 9 -3 9
-10 -2 -7 -11 -10 -11 -10 -2 0 7 -4 11 -9 8 -5 -4 -11 -2 -13 4 -1 5 -24 10
-50 11 -27 1 -48 7 -48 12 0 5 -7 4 -15 -3 -8 -7 -15 -8 -15 -3 0 5 -45 9
-104 9 -75 -1 -102 2 -99 11 3 6 11 14 19 17 8 3 14 12 14 21 0 8 5 15 10 15
6 0 16 12 23 28 6 15 14 29 17 32 3 3 14 24 24 47 10 23 23 40 29 36 6 -3 7
-1 3 6 -4 6 -2 18 4 26 7 8 9 15 5 15 -4 0 -2 7 5 15 7 8 10 15 6 15 -3 0 3
22 13 50 11 29 14 47 8 44 -8 -4 -7 -2 1 7 6 7 12 30 12 52 0 21 3 36 8 34 4
-3 7 35 7 84 0 49 -4 89 -9 89 -4 0 -4 6 2 13 5 7 6 21 1 32 -11 29 -11 37 4
29 9 -6 9 -5 0 7 -6 8 -14 30 -16 49 -3 19 -6 35 -7 35 -2 0 -10 36 -12 58 -1
9 -6 17 -10 17 -4 0 -7 3 -6 8 3 12 -25 82 -34 82 -4 0 -5 6 -2 14 3 7 -1 20
-8 27 -8 8 -20 29 -27 47 -7 17 -17 32 -22 32 -5 0 -9 7 -9 15 0 8 -4 15 -10
15 -5 0 -10 6 -10 13 0 6 -27 38 -60 71 -33 32 -60 62 -60 67 0 5 -7 9 -15 9
-9 0 -18 7 -21 15 -4 8 -10 13 -14 10 -4 -3 -11 2 -14 11 -3 8 -10 13 -14 10
-5 -3 -15 4 -22 15 -8 10 -22 19 -32 19 -10 0 -18 5 -18 10 0 6 -9 10 -20 10
-11 0 -20 5 -20 10 0 6 -3 9 -7 9 -5 -1 -11 0 -15 1 -19 6 -25 8 -55 15 -18 4
-33 12 -33 18 0 6 -2 8 -5 5 -3 -3 -44 3 -90 12 -47 10 -85 13 -85 8 0 -5 -5
-6 -12 -2 -13 8 -110 12 -141 6z"/>
<path d="M3075 7440 c-2 -3 -18 -5 -34 -4 -17 1 -33 -2 -36 -6 -3 -5 -14 -7
-25 -5 -11 2 -20 -1 -20 -7 0 -6 -3 -9 -6 -5 -8 7 -84 -22 -102 -40 -8 -7 -18
-11 -23 -8 -5 4 -9 2 -9 -4 0 -6 -12 -17 -27 -25 -32 -18 -103 -80 -103 -91 0
-4 -11 -18 -24 -30 -14 -13 -22 -26 -19 -29 4 -3 1 -6 -5 -6 -7 0 -12 -7 -12
-15 0 -9 -6 -18 -14 -21 -8 -3 -13 -11 -10 -19 3 -7 -2 -20 -11 -28 -9 -9 -15
-18 -14 -19 2 -2 -3 -19 -10 -38 -8 -19 -15 -51 -17 -70 -3 -19 -7 -42 -11
-50 -7 -19 -10 -170 -3 -170 3 0 6 -9 7 -20 1 -13 -2 -18 -10 -13 -9 5 -8 2 0
-9 7 -8 14 -27 15 -42 1 -14 5 -26 8 -26 3 0 6 -8 7 -17 1 -10 7 -31 13 -48 6
-16 11 -32 11 -35 0 -3 8 -13 16 -22 9 -10 12 -18 7 -18 -5 0 -4 -4 1 -8 16
-11 55 -70 55 -82 0 -6 5 -8 10 -5 6 3 10 1 10 -5 0 -12 53 -70 65 -70 4 0 15
-8 24 -18 9 -10 31 -25 49 -33 17 -7 32 -17 32 -21 0 -5 3 -7 8 -6 4 0 14 -1
22 -4 8 -4 24 -9 35 -14 11 -4 23 -6 28 -6 4 1 7 -2 7 -6 0 -4 19 -9 43 -11
23 -1 43 -6 45 -11 2 -5 13 -5 28 0 13 5 24 6 24 2 0 -9 67 -8 76 1 4 3 16 2
27 -4 15 -9 18 -8 12 2 -6 9 -2 11 13 7 12 -4 22 -2 22 4 0 5 5 6 10 3 6 -3
16 -3 23 2 6 4 17 8 22 8 6 0 27 8 49 18 21 9 42 17 47 17 5 0 9 5 9 11 0 5 4
8 9 4 5 -3 16 2 24 10 9 8 20 15 26 15 6 0 10 3 10 8 -3 19 2 25 11 12 5 -8
10 -10 10 -4 0 6 21 34 48 62 61 64 72 79 72 92 0 5 5 10 11 10 5 0 7 5 4 10
-3 6 -2 10 3 10 5 0 13 10 17 23 10 30 12 36 15 42 3 7 7 22 9 36 0 5 5 8 9 5
4 -2 8 5 9 17 1 28 7 59 14 72 3 6 5 29 5 53 -1 23 1 42 4 42 3 0 5 18 5 40 0
22 -2 40 -5 40 -3 0 -6 10 -7 23 -2 54 -8 97 -13 97 -4 0 -7 7 -7 15 0 21 -46
135 -55 135 -5 0 -8 6 -8 13 0 7 -13 28 -30 47 -16 19 -29 41 -30 49 0 8 -2
12 -5 9 -3 -3 -28 17 -57 44 -28 26 -57 48 -64 48 -8 0 -14 5 -14 10 0 6 -7
10 -15 10 -8 0 -15 5 -15 10 0 6 -3 9 -7 8 -5 0 -17 2 -28 7 -11 4 -35 14 -54
21 -18 8 -37 11 -42 8 -5 -3 -9 0 -9 7 0 8 -4 8 -15 -1 -12 -10 -15 -10 -15 0
0 7 -6 10 -14 7 -7 -3 -19 0 -25 6 -8 8 -11 8 -11 -1 0 -6 -6 -9 -13 -6 -21 8
-88 11 -92 4z"/>
<path d="M3794 5877 c-8 -4 -18 -6 -23 -2 -5 3 -13 0 -17 -6 -4 -8 -9 -7 -15
2 -5 9 -9 10 -9 3 0 -11 -46 -29 -62 -26 -5 1 -8 -2 -8 -8 0 -5 -5 -10 -10
-10 -6 0 -28 -11 -49 -24 -21 -14 -42 -22 -47 -18 -4 4 -4 1 0 -5 4 -7 2 -13
-3 -13 -6 0 -29 -18 -50 -39 -22 -22 -42 -36 -46 -33 -3 4 -3 -2 1 -12 5 -12
4 -17 -3 -13 -5 4 -15 -5 -21 -18 -7 -14 -16 -25 -22 -25 -6 0 -9 -4 -6 -9 3
-4 -3 -19 -14 -31 -11 -12 -17 -27 -14 -31 3 -5 0 -9 -7 -9 -7 0 -9 -3 -6 -7
4 -3 2 -12 -4 -20 -7 -7 -13 -21 -14 -31 -1 -9 -7 -29 -13 -45 -6 -15 -10 -41
-8 -57 2 -22 0 -28 -8 -21 -8 7 -11 -12 -9 -67 2 -128 5 -152 17 -145 7 4 6 1
-1 -8 -7 -9 -8 -20 -3 -29 5 -8 6 -18 4 -22 -3 -4 -1 -8 4 -8 6 0 9 -13 8 -29
-1 -17 2 -28 6 -25 4 3 8 -4 8 -15 0 -12 5 -21 11 -21 5 0 8 -4 4 -9 -3 -5 -1
-12 5 -16 6 -4 8 -11 5 -16 -4 -5 -1 -9 4 -9 6 0 11 -6 11 -14 0 -8 7 -17 16
-20 9 -4 14 -13 10 -22 -3 -8 -2 -13 2 -11 4 3 13 -1 20 -9 7 -8 9 -14 5 -14
-9 0 94 -98 124 -119 12 -8 24 -12 28 -10 3 2 11 -4 16 -14 6 -9 14 -15 20
-12 5 4 9 1 9 -4 0 -6 11 -11 25 -11 14 0 25 -4 25 -10 0 -5 9 -10 20 -10 11
0 20 -4 20 -10 0 -5 6 -7 13 -4 8 3 25 0 40 -5 17 -7 28 -7 32 -1 4 6 13 7 23
1 15 -7 47 -7 194 2 21 1 38 4 38 8 0 3 23 13 50 23 28 10 50 22 50 27 0 4 7
6 15 3 8 -4 15 -2 15 3 0 6 15 18 34 28 19 11 33 23 30 27 -3 4 -1 8 5 8 15 0
61 45 61 60 0 7 3 10 7 7 7 -8 79 93 75 106 -1 4 3 7 9 7 5 0 8 4 4 9 -3 5 -1
12 5 16 6 4 8 11 5 16 -4 5 -2 9 3 9 9 0 26 55 23 73 0 4 4 7 10 7 5 0 7 4 4
10 -3 5 -2 18 4 28 6 11 6 24 -1 36 -7 13 -7 17 0 12 12 -7 12 -7 11 103 0 44
-5 81 -12 90 -10 12 -9 13 1 7 11 -7 12 -4 3 13 -7 12 -9 26 -6 31 3 5 0 12
-6 15 -5 4 -8 13 -6 19 3 7 -10 43 -28 79 -18 36 -31 68 -27 71 3 3 0 6 -6 6
-7 0 -12 8 -12 17 0 9 -3 14 -6 10 -4 -3 -18 11 -32 31 -13 20 -33 43 -44 50
-10 7 -15 18 -12 24 4 7 2 8 -5 4 -6 -4 -14 0 -17 8 -3 9 -10 13 -15 10 -5 -3
-9 -1 -9 4 0 5 -18 17 -39 28 -22 10 -37 22 -35 26 3 5 -4 8 -16 8 -12 0 -19
4 -16 9 4 5 -3 7 -14 4 -12 -3 -20 0 -20 6 0 7 -4 9 -10 6 -5 -3 -10 -2 -10 3
0 5 -8 9 -17 9 -44 0 -54 3 -47 16 6 9 4 9 -7 1 -13 -9 -27 -11 -46 -4 -20 7
-166 4 -179 -3z"/>
<path d="M2259 5601 c-2 -6 -16 -12 -31 -13 -16 -1 -28 -7 -28 -12 0 -5 -3 -6
-6 -3 -4 4 -19 -2 -34 -13 -15 -11 -31 -16 -35 -12 -5 4 -5 2 -1 -5 3 -7 -2
-14 -14 -18 -11 -4 -18 -10 -15 -15 3 -5 -4 -11 -15 -15 -11 -4 -18 -11 -15
-16 4 -5 2 -9 -3 -9 -12 0 -63 -95 -55 -104 3 -3 2 -6 -4 -6 -5 0 -10 -6 -10
-12 -1 -23 -12 -68 -19 -79 -4 -8 -3 -9 4 -5 13 8 17 -6 5 -18 -9 -9 -13 -36
-5 -36 4 0 8 -19 9 -42 2 -23 13 -62 25 -86 12 -25 21 -51 21 -58 0 -7 3 -12
6 -10 7 3 41 -31 36 -36 -2 -2 3 -9 11 -16 8 -7 14 -11 14 -8 0 3 11 -6 25
-20 14 -14 30 -22 35 -19 6 3 10 2 10 -4 0 -6 18 -16 40 -22 24 -7 37 -16 33
-23 -4 -6 1 -5 10 3 9 7 17 9 17 4 0 -5 28 -8 63 -6 96 5 111 7 125 21 8 7 17
10 22 7 4 -2 20 8 36 23 15 15 24 21 20 15 -4 -7 -3 -13 2 -13 5 0 15 11 22
25 7 14 15 23 18 20 6 -5 32 21 32 32 0 5 8 18 19 29 18 19 43 83 38 95 -1 3
3 12 9 20 5 8 10 35 10 61 -1 27 3 48 7 48 4 0 4 8 -1 18 -5 9 -8 25 -7 35 2
9 -1 17 -6 17 -6 0 -7 4 -4 10 3 5 -1 22 -9 38 -8 16 -12 32 -9 35 3 4 -2 9
-11 13 -9 3 -14 9 -11 14 2 4 -5 17 -16 28 -11 12 -18 22 -15 22 3 0 -5 10
-17 23 -12 13 -25 22 -29 20 -5 -2 -8 1 -8 6 0 13 -96 61 -121 61 -10 0 -19 6
-22 13 -3 9 -7 9 -20 -2 -10 -7 -17 -9 -17 -4 0 5 -20 9 -45 9 -25 -1 -45 -5
-45 -11 0 -5 -4 -4 -9 4 -6 9 -10 9 -12 2z"/>
<path d="M3057 4313 c-2 -1 -18 -4 -37 -7 -19 -2 -52 -9 -72 -16 -21 -6 -40
-11 -43 -10 -3 0 -13 -6 -21 -15 -14 -14 -35 -20 -57 -16 -5 1 -6 -3 -2 -8 3
-6 -8 -17 -25 -26 -16 -8 -30 -20 -30 -25 0 -6 -6 -9 -12 -7 -7 1 -12 -4 -11
-10 2 -7 -1 -12 -6 -10 -10 2 -71 -62 -71 -75 0 -5 -4 -6 -10 -3 -5 3 -10 -1
-10 -9 0 -9 -5 -16 -10 -16 -6 0 -9 -3 -8 -7 2 -10 -14 -46 -22 -53 -12 -9
-49 -117 -43 -124 4 -3 1 -6 -5 -6 -6 0 -11 -8 -11 -17 -1 -43 -4 -59 -14 -70
-6 -9 -6 -13 2 -13 7 0 9 -5 5 -12 -10 -16 -12 -128 -2 -128 5 0 4 -10 -3 -21
-8 -15 -8 -19 0 -15 7 5 11 -5 11 -28 0 -19 5 -38 10 -41 6 -4 8 -10 5 -15 -3
-4 4 -28 14 -53 11 -25 17 -48 14 -51 -4 -3 -1 -6 5 -6 7 0 12 -7 12 -15 0 -8
5 -15 11 -15 5 0 7 -4 4 -10 -3 -5 -2 -10 2 -10 5 0 17 -15 28 -32 24 -42 120
-139 129 -131 3 3 6 1 6 -5 0 -6 9 -14 20 -17 11 -4 18 -11 15 -16 -3 -5 1 -6
9 -3 9 3 16 1 16 -5 0 -6 9 -11 20 -11 11 0 20 -5 20 -12 0 -6 3 -8 7 -5 3 4
12 2 20 -4 7 -6 13 -8 13 -4 0 4 6 3 13 -3 7 -6 25 -13 40 -16 15 -2 32 -8 38
-12 8 -5 9 -3 4 7 -7 11 -6 12 6 3 16 -12 187 -13 207 -1 6 5 12 6 12 3 0 -7
103 24 118 36 6 6 12 7 12 2 0 -5 4 -3 9 4 4 7 17 14 29 15 12 0 19 3 17 5 -6
7 19 30 28 25 4 -2 7 1 7 6 0 6 4 11 10 11 28 0 190 206 183 232 -2 4 2 8 7 8
5 0 9 3 9 8 -1 4 0 9 1 12 3 9 10 44 12 63 1 9 6 17 10 17 3 0 7 8 6 18 0 9 3
40 7 67 11 85 11 90 6 99 -8 16 -6 66 2 66 5 0 2 7 -7 15 -8 9 -13 27 -11 45
2 16 0 30 -5 30 -6 0 -10 11 -10 24 0 14 -5 28 -10 31 -6 4 -8 11 -5 16 4 5 1
9 -5 9 -7 0 -10 7 -6 15 3 8 -2 18 -10 23 -9 5 -16 13 -16 18 -1 13 -11 38
-17 44 -4 3 -19 23 -35 45 -43 58 -131 135 -156 135 -6 0 -8 6 -4 13 4 6 4 9
0 5 -5 -4 -25 2 -47 14 -21 11 -46 21 -56 23 -10 2 -19 4 -20 5 -2 2 -7 4 -13
5 -5 1 -11 4 -12 5 -9 7 -215 20 -221 13z"/>
<path d="M4370 2530 c0 -3 -12 -6 -27 -7 -16 0 -41 -4 -58 -8 -33 -7 -173 -72
-191 -89 -7 -6 -37 -33 -68 -60 -30 -27 -53 -52 -51 -57 3 -4 -4 -10 -15 -14
-11 -4 -18 -10 -15 -15 3 -5 -3 -13 -12 -19 -10 -6 -13 -11 -8 -11 6 0 5 -4
-1 -8 -17 -10 -75 -133 -68 -143 3 -5 1 -9 -4 -9 -9 0 -24 -52 -26 -90 -1 -8
-4 -19 -8 -25 -7 -11 -2 -227 6 -265 10 -46 31 -115 36 -120 3 -3 6 -12 8 -20
2 -8 8 -16 13 -18 5 -2 9 -11 9 -20 0 -9 7 -26 15 -36 8 -10 12 -23 8 -29 -3
-6 -1 -7 5 -3 7 4 12 1 12 -9 0 -8 7 -18 15 -21 8 -3 17 -14 20 -25 4 -11 11
-17 16 -14 5 3 6 -1 3 -9 -3 -9 -1 -16 5 -16 7 0 26 -13 44 -30 18 -16 36 -30
40 -30 5 0 5 -6 1 -12 -4 -7 -3 -10 1 -5 5 4 17 0 27 -10 10 -9 18 -13 18 -10
0 4 9 -1 20 -11 12 -9 23 -15 27 -14 3 2 9 -1 12 -6 3 -6 15 -12 26 -14 11 -1
23 -6 26 -10 3 -5 17 -9 32 -10 15 -1 27 -6 27 -11 0 -5 9 -6 19 -2 11 3 22 1
26 -5 3 -6 11 -7 17 -4 6 4 14 0 19 -7 7 -12 9 -12 9 0 0 11 3 11 17 0 14 -12
16 -12 8 0 -6 11 -5 12 6 5 20 -12 111 -12 128 0 12 9 13 8 7 -2 -7 -11 -4
-12 12 -3 11 6 35 11 53 13 19 1 40 6 46 11 7 5 20 7 28 3 9 -3 13 -2 10 4 -5
9 8 12 31 9 4 0 10 3 13 8 3 4 27 19 54 33 26 13 47 28 47 33 0 4 5 5 10 2 6
-3 13 1 16 9 3 9 13 16 22 16 8 0 13 3 9 6 -7 7 15 34 24 28 4 -2 17 11 30 28
13 17 29 36 35 42 5 6 13 19 17 29 3 9 11 17 17 17 6 0 9 4 5 9 -3 5 0 13 5
16 13 8 35 57 39 86 0 5 5 8 10 5 5 -4 8 2 6 11 -1 10 2 27 8 38 6 11 10 26 9
33 -2 6 1 12 6 12 5 0 8 10 7 23 -1 12 0 27 4 32 3 6 6 45 7 88 2 57 -1 75 -9
70 -7 -4 -6 1 2 10 10 13 11 20 2 30 -8 10 -7 17 1 25 7 7 8 12 2 12 -5 0 -10
10 -11 23 -2 33 -13 80 -22 92 -5 5 -7 18 -6 28 2 9 0 17 -3 17 -4 0 -13 9
-20 21 -10 15 -10 19 -1 14 6 -4 0 9 -14 30 -14 21 -23 43 -20 49 3 6 3 8 -2
4 -9 -9 -42 25 -50 52 -3 10 -13 21 -21 24 -9 3 -12 11 -8 18 4 7 4 10 0 6 -5
-4 -20 5 -35 20 -54 53 -155 117 -196 124 -11 1 -22 6 -26 10 -3 4 -18 9 -35
11 -16 2 -36 7 -43 11 -7 4 -15 5 -18 2 -3 -3 -15 -1 -26 5 -15 9 -18 8 -12
-2 6 -9 4 -10 -6 -3 -15 10 -179 14 -179 4z"/>
<path d="M3070 740 c0 -3 -9 -7 -20 -8 -42 -4 -50 -6 -50 -12 0 -3 -16 -12
-35 -19 -19 -7 -35 -16 -35 -21 0 -5 -9 -11 -19 -15 -11 -3 -23 -15 -26 -26
-4 -10 -11 -17 -16 -13 -5 3 -14 -8 -20 -25 -6 -17 -15 -31 -20 -31 -5 0 -9
-9 -9 -20 0 -11 -5 -20 -11 -20 -6 0 -9 -7 -5 -15 3 -8 2 -15 -2 -15 -4 0 -9
-12 -10 -27 -1 -15 -8 -30 -15 -35 -9 -6 -9 -8 0 -8 8 0 9 -9 3 -30 -6 -21 -5
-30 3 -30 7 0 6 -4 -3 -10 -8 -5 -10 -10 -5 -10 6 0 11 -21 13 -47 1 -26 8
-51 15 -55 6 -4 9 -8 5 -8 -13 0 34 -84 63 -112 15 -14 25 -29 23 -31 -3 -3 8
-11 25 -18 16 -7 27 -17 25 -21 -3 -4 4 -8 15 -8 12 0 21 -5 21 -10 0 -6 3 -9
8 -8 4 1 24 -4 45 -11 40 -14 167 -21 167 -10 0 4 13 6 29 5 17 -1 28 2 25 6
-5 7 19 13 39 9 5 -1 6 3 3 8 -6 9 31 27 47 23 5 -1 6 1 4 5 -6 10 19 34 27
26 3 -4 6 1 6 10 0 10 5 16 12 15 7 -2 12 3 13 10 0 7 5 16 10 20 16 11 58 93
51 99 -3 3 0 13 7 21 14 17 19 202 5 202 -4 0 -8 11 -8 24 0 14 -4 28 -10 31
-5 3 -10 15 -10 26 0 10 -4 19 -10 19 -5 0 -10 6 -10 14 0 16 -64 86 -79 86
-6 0 -11 4 -11 9 0 5 -16 15 -35 22 -19 7 -35 16 -35 19 0 3 -12 7 -27 8 -15
1 -29 5 -32 10 -7 9 -141 11 -141 2z"/>
</g>
</svg>
